<svg version="1.1" id="Layer_1" xmlns="http://www.w3.org/2000/svg" xmlns:xlink="http://www.w3.org/1999/xlink" x="0px" y="0px"
	 width="100%" viewBox="0 0 1024 1024" enable-background="new 0 0 1024 1024" xml:space="preserve">
<path fill="#000000" opacity="1.000000" stroke="none" 
	d="
M710.468994,847.571655 
	C699.301697,846.213013 693.711975,838.057922 687.847595,830.331726 
	C682.996521,823.940552 675.765686,822.600830 668.795898,822.789551 
	C664.061279,822.917725 659.036499,823.313721 654.498718,822.921875 
	C644.082458,822.022522 633.634888,823.462341 623.231323,821.559326 
	C613.908325,819.853943 604.560974,821.223694 596.724731,826.847290 
	C594.719910,828.286011 593.253662,830.897034 590.558716,831.730957 
	C588.083496,832.496826 585.936157,831.407166 584.061096,829.960083 
	C582.790100,828.979126 585.651611,828.755066 584.441650,827.340881 
	C576.922180,827.829529 572.254272,821.316528 565.700989,818.794250 
	C554.015198,814.296387 545.782532,804.186096 534.839600,798.780457 
	C518.209351,790.565308 508.113007,777.050476 499.684601,761.411499 
	C494.733978,752.225586 487.517334,745.535156 477.004456,742.392944 
	C467.852692,739.657654 458.424286,738.713989 449.201172,736.598450 
	C445.814209,735.821594 442.516418,734.658508 439.172607,733.690063 
	C432.572937,731.778564 428.662170,733.193909 425.163208,738.934082 
	C424.365082,740.243469 423.742188,741.616211 422.165710,742.079041 
	C411.618896,745.175537 403.260010,753.146240 392.095398,755.117065 
	C385.770233,756.233704 379.649261,757.015564 373.346893,755.678650 
	C371.579285,755.303650 369.758362,755.115417 368.040283,754.586792 
	C365.432037,753.784363 361.956299,756.970764 359.915161,752.551331 
	C359.541595,751.742493 356.276398,753.208252 354.165253,754.122314 
	C354.315552,750.657837 354.505157,747.505310 349.291382,749.197266 
	C346.045776,750.250610 342.491547,748.623840 338.977295,748.737976 
	C336.495667,748.818542 335.836456,746.129761 336.668793,743.713745 
	C338.252838,739.115662 336.673492,734.930359 333.930450,731.652710 
	C327.112854,723.506653 320.079468,715.497314 312.587616,707.976013 
	C308.185455,703.556458 301.411285,702.058289 297.126862,696.452881 
	C292.686554,699.221375 288.141357,701.289307 282.710541,700.017822 
	C273.119843,697.772278 263.065918,687.022827 261.726257,677.174072 
	C260.835052,670.621948 260.221191,664.029419 257.607880,657.825989 
	C256.442200,655.058960 256.555511,652.099304 256.512695,649.075012 
	C256.353577,637.838684 254.343384,626.900452 251.170044,616.055298 
	C248.466766,606.816650 244.955658,598.115845 238.827286,590.741028 
	C230.916504,581.221252 223.377029,571.514160 214.115677,562.966309 
	C206.809814,556.223267 199.405823,547.498291 201.340363,535.332886 
	C201.832474,532.238281 199.789902,529.318237 197.851196,526.732605 
	C194.881378,522.771790 192.053268,518.745361 189.664932,514.357544 
	C186.230469,508.047913 181.971405,502.512756 175.040253,499.269623 
	C166.582764,495.312347 159.702530,489.053070 152.555862,483.070618 
	C146.348358,477.874390 143.698288,470.927063 139.849564,464.459381 
	C137.133804,459.895599 135.042496,455.482208 135.692581,449.882172 
	C136.096863,446.399567 134.183441,443.019531 132.562454,439.987488 
	C127.754890,430.994904 127.690895,421.252014 128.725403,411.741241 
	C129.996140,400.058594 125.738815,391.574463 117.136101,384.305847 
	C108.526527,377.031464 102.983383,367.191071 96.592682,358.117218 
	C93.725418,354.046112 94.542259,349.534424 97.576874,345.549286 
	C100.694588,341.454956 104.186310,339.044434 109.915779,340.384003 
	C119.513390,342.627960 122.018364,340.785675 124.401802,331.240906 
	C124.643982,330.271057 124.801071,329.275513 125.104858,328.326233 
	C126.950592,322.558685 130.284927,321.088165 135.818497,323.567932 
	C140.725174,325.766754 143.047089,324.693695 144.516357,319.502594 
	C145.765091,315.090729 145.099533,310.410156 143.076431,306.841370 
	C137.797165,297.528656 140.541962,288.510986 143.152039,279.617889 
	C146.492874,268.234894 153.360077,258.995972 161.419083,250.199356 
	C166.227402,244.950897 171.123245,242.235413 177.791092,241.347519 
	C179.960434,241.058640 181.972305,239.587311 183.981659,238.690094 
	C185.827957,240.433701 184.660202,242.015564 184.119873,243.454620 
	C181.077347,251.557526 177.988220,259.643768 174.817947,267.697510 
	C173.404556,271.288116 172.169449,274.902527 172.129501,278.795471 
	C171.969070,294.428711 169.704025,309.985138 169.618942,325.567719 
	C169.389038,367.686005 185.591644,401.522095 220.873398,426.010895 
	C242.567001,441.068268 266.687042,449.065125 291.890442,455.273895 
	C302.504517,457.888641 311.940308,456.671112 321.238281,451.636963 
	C324.066620,450.105621 326.505554,448.086304 327.865082,445.060547 
	C328.597015,443.431580 329.563751,441.726685 327.707886,440.034210 
	C327.229370,440.189728 326.557861,440.194885 326.364960,440.501312 
	C318.544922,452.923767 306.388062,452.580750 293.996246,451.542450 
	C283.462158,450.659790 274.199524,445.937683 264.746063,441.805695 
	C241.454468,431.625183 220.375916,418.227539 203.147522,399.272034 
	C201.733688,397.716431 200.028015,396.269958 199.718811,393.737152 
	C201.734985,393.085938 202.861038,394.681641 204.119781,395.453217 
	C223.186462,407.140839 242.544083,406.708038 261.340790,395.576080 
	C273.303314,388.491486 279.977722,376.666046 283.605438,363.506805 
	C290.548676,338.320892 286.267120,314.515594 272.578033,292.604858 
	C258.626160,270.273529 238.137939,257.410858 212.063828,253.555298 
	C209.174026,253.127975 206.489899,254.296036 203.766983,255.038422 
	C201.715866,255.597656 199.786713,256.774048 196.869339,256.207886 
	C195.731628,249.410843 194.243759,242.456573 193.522858,235.423691 
	C193.145065,231.738022 196.554749,229.202606 198.579819,226.486511 
	C202.929260,220.652924 207.745255,217.146622 216.440811,217.453674 
	C229.696228,217.921722 242.576614,219.277344 255.365768,222.540024 
	C257.735168,223.144485 260.389832,223.260315 262.812805,222.909927 
	C270.825684,221.751236 278.693695,222.412537 286.598083,223.835052 
	C290.851837,224.600616 294.958801,225.153351 298.823700,227.601974 
	C304.002655,230.883102 310.302124,230.972824 316.189453,231.721405 
	C328.963043,233.345581 340.893188,236.689713 351.278473,244.769943 
	C356.719757,249.003510 364.504272,248.835510 369.798157,253.236237 
	C378.830811,260.744934 390.312897,264.431305 398.609528,273.299408 
	C405.166229,280.307739 415.159119,282.486267 423.944305,285.787201 
	C431.758209,288.723145 436.908264,293.617889 440.686951,300.501404 
	C444.104309,306.726685 447.988098,312.107727 454.774048,315.427979 
	C460.398468,318.179871 463.975677,324.020996 469.622986,327.118530 
	C482.437134,334.147034 495.542877,339.097870 510.674133,339.243134 
	C522.809204,339.359558 535.352905,339.158173 547.022217,343.819489 
	C553.173828,346.276733 558.830444,349.805725 565.230835,351.861816 
	C569.711182,353.301147 571.113525,357.879395 568.993958,362.713501 
	C567.161743,366.892273 566.811829,370.908234 567.747681,375.343445 
	C568.460266,378.720673 568.818604,382.374939 563.001953,380.941620 
	C560.788391,380.396179 558.547302,381.944733 556.488098,383.100098 
	C536.683350,394.211761 521.594055,410.144653 509.510864,429.117523 
	C504.316193,437.274109 500.103821,445.979858 495.777527,454.612183 
	C493.516052,459.124512 494.207764,460.207367 498.957397,460.684479 
	C518.648438,462.662567 537.430298,468.025116 555.483032,476.049500 
	C556.849731,476.656982 558.189026,477.332336 559.581604,477.871429 
	C559.968933,478.021332 560.501953,477.795044 561.459839,477.684723 
	C557.715027,447.622711 557.375671,417.713806 563.547302,387.506073 
	C567.213196,388.792755 567.326538,391.634857 567.779114,394.077026 
	C568.170654,396.189636 567.906860,398.423340 568.295044,400.536987 
	C568.803467,403.306122 570.179565,406.104279 573.346008,405.764801 
	C578.041626,405.261414 583.065918,406.490417 587.400757,403.611511 
	C590.836548,401.329651 594.021057,401.936371 597.014648,404.465820 
	C599.556396,406.613403 602.320007,408.569275 604.532410,411.019165 
	C607.890076,414.737213 611.978333,416.201752 616.155579,413.797485 
	C625.318970,408.523315 634.911255,410.812531 644.431335,411.260437 
	C646.276123,411.347229 648.221375,411.764832 649.859741,410.979614 
	C659.293030,406.458649 668.478149,410.921539 677.676514,411.874420 
	C683.166138,412.443054 688.533875,413.219208 694.042542,412.501434 
	C700.133118,411.707855 704.156616,413.970398 705.969299,419.793701 
	C707.664917,425.241333 711.033203,428.706635 715.854858,431.685455 
	C728.537842,439.520874 741.755737,446.571869 753.040344,456.564331 
	C756.883545,459.967468 761.954895,460.890411 767.084473,461.019348 
	C772.706848,461.160645 777.901428,462.516205 782.421692,466.145111 
	C789.554443,471.871368 798.507568,473.079285 806.890930,475.664917 
	C817.840088,479.041931 828.607178,483.098602 840.472778,482.211395 
	C844.423767,481.915955 848.574402,483.314850 851.284058,486.597778 
	C857.555054,494.195465 867.223999,498.950195 871.738159,507.558838 
	C877.954102,519.412842 888.687988,527.047180 896.336975,537.446411 
	C899.710938,542.033386 905.377258,544.165344 910.331055,546.874207 
	C920.873718,552.639099 928.534851,561.860168 937.711914,569.243286 
	C943.787292,574.131165 947.656128,580.257019 951.171265,586.914673 
	C952.828674,590.053711 953.263916,593.166382 952.569824,596.552429 
	C951.553284,601.511475 951.633667,606.525757 952.308655,611.485107 
	C953.124451,617.479675 953.119629,623.412781 952.372498,629.410156 
	C951.597046,635.634583 952.200989,641.740967 955.194641,647.400696 
	C958.632263,653.899902 958.978027,660.559875 955.667603,667.080750 
	C952.833008,672.664307 952.502014,678.579590 952.445618,684.562988 
	C952.416077,687.697144 951.851746,690.728943 949.986511,693.038696 
	C946.823792,696.955444 945.585938,701.508667 944.177795,706.148499 
	C939.214417,722.503967 929.035278,733.877930 912.388000,739.095276 
	C901.620789,742.469910 891.382202,747.375854 880.257996,749.798706 
	C874.351624,751.085022 869.902039,755.224609 866.699707,760.169250 
	C863.710327,764.785095 858.306335,766.600342 855.398010,771.308105 
	C849.267151,781.232178 841.529663,789.987488 834.264648,799.081909 
	C831.263611,802.838562 827.956360,805.642151 822.849670,806.339722 
	C814.894592,807.426392 807.503662,810.680725 799.914246,813.172546 
	C790.470459,816.273132 780.755310,818.623535 771.487854,822.163147 
	C762.273193,825.682617 752.812195,828.480225 744.519592,834.616394 
	C738.560303,839.026062 732.577454,843.762390 725.953247,847.211121 
	C721.270691,849.648926 715.895874,848.386047 710.468994,847.571655 
M648.390137,472.899567 
	C650.242493,468.147003 648.952148,466.138855 644.151306,466.651733 
	C640.519653,467.039673 636.868591,467.535583 633.322815,468.386292 
	C617.501221,472.181976 602.778442,478.768372 588.487671,486.399567 
	C587.621948,486.861908 586.722656,487.409821 586.872192,489.247894 
	C599.419861,497.793396 614.186951,503.626678 626.021912,513.974121 
	C625.370544,514.230896 624.872925,514.222534 624.502380,514.001221 
	C606.067139,502.992188 587.521484,492.244751 567.796936,483.577972 
	C553.600342,477.340179 539.486450,470.941376 524.317261,467.527344 
	C496.617584,461.293243 468.516663,458.557068 440.125824,458.920013 
	C429.963013,459.049896 419.642273,458.274506 409.673370,459.773163 
	C388.066650,463.021423 366.108582,461.290802 344.582916,465.241455 
	C335.939484,466.827850 326.987244,466.617706 318.508057,469.343628 
	C308.999481,472.400421 305.725739,476.952576 307.514801,485.943451 
	C310.706146,501.981171 317.769501,516.097473 329.535156,527.683105 
	C331.064178,529.188721 332.484924,530.419739 334.710693,528.932190 
	C336.930634,527.448547 337.058624,525.608459 336.118774,523.283875 
	C335.073120,520.697449 333.545593,518.177734 334.224701,515.016968 
	C336.852631,520.142883 339.071472,525.407837 344.615906,528.156433 
	C346.022919,528.853943 346.978729,530.759827 348.806000,530.450867 
	C351.087036,530.065186 350.456848,527.935547 350.765625,526.393188 
	C350.854370,525.950012 351.153992,525.549011 351.528503,524.773193 
	C354.320374,527.777222 359.493713,529.700684 361.317749,528.669312 
	C365.966431,526.040771 367.615173,528.948730 370.092743,531.128052 
	C371.164185,532.070496 372.140198,534.246155 373.624359,533.170288 
	C378.630951,529.541077 381.386719,533.678711 384.634186,536.029419 
	C386.437469,535.399170 388.425110,533.297668 389.721405,534.506470 
	C392.350464,536.958069 395.735779,536.047180 398.198059,537.183167 
	C403.536591,539.646240 409.265564,540.195068 414.664795,542.088196 
	C419.158417,543.663818 423.036560,546.390503 427.757874,547.693481 
	C441.736053,551.550781 454.766449,557.777954 467.131317,565.372437 
	C476.420349,571.077698 486.338898,576.027344 491.479187,586.533936 
	C492.084076,587.770264 493.101807,588.842773 491.736359,590.024109 
	C490.520599,591.075928 489.179901,591.362976 487.654999,590.271912 
	C486.188049,589.222351 485.527496,587.226685 483.436676,586.762817 
	C481.756683,587.661682 481.515137,589.309448 481.378967,590.975891 
	C480.990356,595.731689 477.866608,598.282593 473.680908,598.622742 
	C470.814606,598.855713 468.284698,599.874939 465.566803,600.355713 
	C446.449707,603.737183 428.102692,598.872498 410.000671,594.221680 
	C397.349731,590.971436 384.897766,586.476135 372.807434,581.268738 
	C369.007843,579.632141 364.691254,578.572815 364.588196,573.150635 
	C364.578705,572.649902 363.955109,571.829224 363.485992,571.720398 
	C358.992096,570.678162 358.848206,567.215088 358.572754,563.583191 
	C358.307281,560.082947 355.257111,558.685364 352.630157,560.885559 
	C350.091034,563.012207 347.686218,565.394470 346.144897,568.413940 
	C343.490967,573.613098 345.281250,576.650818 350.972107,576.700317 
	C353.931061,576.726013 356.890442,576.704834 359.849609,576.704834 
	C359.829285,577.112061 359.808929,577.519287 359.788574,577.926514 
	C354.548798,578.506836 349.367371,579.923035 344.005310,578.695435 
	C342.632812,578.381165 340.998566,577.288818 339.893311,578.954163 
	C338.922028,580.417542 339.034668,582.294128 339.780670,583.770813 
	C342.551117,589.254578 345.524628,594.559814 350.086945,598.918823 
	C359.805450,608.204224 371.119690,614.201721 383.937439,618.328003 
	C391.879944,620.884827 401.094879,621.268311 405.955719,631.184875 
	C410.266846,639.979980 413.672791,648.326233 412.777771,658.183594 
	C412.185913,664.701782 410.445221,670.954346 408.847809,677.244263 
	C407.522003,682.464783 406.832184,687.738770 407.561005,693.079285 
	C408.315826,698.610046 411.436127,700.333252 416.338776,697.867004 
	C422.280914,694.877869 428.160553,691.812683 433.567627,687.807861 
	C444.017426,680.068054 451.677856,669.739319 460.120331,660.127686 
	C462.598175,657.306702 460.724487,656.271851 458.107605,655.261047 
	C453.603546,653.521423 448.413025,653.260315 444.857788,649.190491 
	C472.938080,658.222046 501.298340,665.307861 532.348511,664.897400 
	C528.549744,658.614380 522.853943,655.938477 520.218384,650.722107 
	C527.076721,654.090759 533.093384,658.500732 538.779236,663.309265 
	C550.459839,673.187683 563.300415,681.041992 577.695557,686.256409 
	C581.575562,687.661865 586.616943,690.133423 589.431641,686.883362 
	C592.099060,683.803345 587.715088,680.049011 585.954102,676.908569 
	C581.478027,668.925842 576.557617,661.193359 571.906677,653.306702 
	C570.803101,651.435364 569.247192,649.324829 571.951355,646.525757 
	C573.464111,649.662659 573.867981,652.251770 575.187012,654.555298 
	C581.494568,665.570801 589.424622,675.480164 596.755615,685.746216 
	C609.047241,702.959045 621.002625,720.375488 632.599182,738.053223 
	C633.719482,739.760925 634.478516,742.068237 637.018494,742.238525 
	C638.145081,741.615845 638.476257,740.646790 638.360840,739.634338 
	C637.400513,731.206909 637.792786,722.650574 636.096008,714.301514 
	C633.939331,703.689575 630.240845,693.494446 627.482666,683.056763 
	C626.317017,678.645752 624.215393,676.414429 620.384766,674.455872 
	C608.857971,668.562134 600.690979,659.285095 595.092163,647.697937 
	C594.563232,646.603394 593.485229,645.452576 594.582764,644.047852 
	C596.833374,644.451538 597.241150,646.438354 598.017456,648.016785 
	C601.680664,655.465271 606.713562,661.880066 613.140747,667.051392 
	C616.283630,669.580139 619.314026,672.769104 623.928345,672.669312 
	C640.875488,672.302795 657.900757,673.934204 674.685486,669.864441 
	C685.664673,667.202393 697.025879,665.921753 707.790466,662.630798 
	C716.144714,660.076782 723.968262,656.441589 733.030518,655.980896 
	C744.643494,655.390503 756.178589,653.370422 767.770813,652.199158 
	C770.567383,651.916565 773.669067,651.031982 776.902649,653.544312 
	C772.688965,657.799438 766.918396,655.933167 762.031128,657.987427 
	C764.530884,659.261475 766.658203,660.069580 767.929077,662.253418 
	C769.916321,665.668274 773.139709,667.786255 776.533752,669.655640 
	C787.461609,675.674561 798.430786,681.529236 809.938416,686.482178 
	C840.739441,699.739075 872.719971,703.516235 905.791138,699.742737 
	C909.984863,699.264221 914.019409,697.983215 917.602844,695.283386 
	C916.897461,694.384094 916.677795,693.828857 916.287537,693.653564 
	C914.467651,692.836121 912.650146,691.951782 910.742432,691.401184 
	C896.124023,687.181580 881.895752,681.891541 868.853516,674.036133 
	C849.156677,662.172668 832.741760,646.654541 824.145508,625.037720 
	C813.964966,599.436768 813.775330,573.412781 825.549561,547.840332 
	C827.934265,542.660950 831.570068,538.230896 833.710388,532.967773 
	C835.192200,529.324158 834.041565,527.630859 830.226990,528.485840 
	C825.869324,529.462585 821.587158,530.947144 817.424866,532.596497 
	C792.076355,542.641113 770.343140,557.944885 751.734009,577.829651 
	C746.299744,583.636353 741.812256,589.997498 739.383850,597.550476 
	C737.236145,604.230286 732.206665,607.195251 726.160583,609.228088 
	C722.795776,610.359375 720.659485,609.042908 718.627563,606.229858 
	C697.465576,576.931335 671.306702,552.605835 642.739319,530.761414 
	C633.238953,523.496887 630.386230,516.067444 634.038696,504.327087 
	C637.408630,493.494781 641.248901,482.835083 648.390137,472.899567 
M390.886932,301.613464 
	C379.964325,291.539154 366.361023,287.591705 352.246765,287.885986 
	C335.092682,288.243622 321.091492,296.562775 310.557343,310.297424 
	C296.224304,328.985138 300.956360,352.139435 321.519623,363.434082 
	C329.703552,367.929230 338.690063,368.528809 347.759949,367.869812 
	C368.006897,366.398712 384.052368,357.657898 394.482086,339.864838 
	C402.516602,326.157959 401.250000,312.317383 390.886932,301.613464 
M737.144897,659.272949 
	C728.382263,658.650940 719.976074,659.746582 711.850952,663.446960 
	C707.879517,665.255676 706.843384,667.229126 709.036438,671.023315 
	C711.367432,675.056030 713.295715,679.329590 715.744812,683.284363 
	C726.633484,700.867615 740.275696,715.576965 759.453674,724.357239 
	C764.354004,726.600769 765.690674,725.723633 765.728394,720.251038 
	C765.777954,713.067261 764.344360,706.020996 763.673523,698.903564 
	C762.689941,688.467468 761.617188,678.038635 760.761475,667.591980 
	C760.373657,662.857544 758.260193,660.823364 753.394165,661.160278 
	C748.215759,661.518799 743.162170,660.072021 737.144897,659.272949 
M658.760559,694.556335 
	C659.118774,690.585815 659.336304,686.596008 659.875427,682.650208 
	C660.399292,678.816528 659.129211,677.066101 655.092590,677.145630 
	C647.610352,677.293030 640.121216,677.301880 632.639038,677.156006 
	C628.463135,677.074585 627.922668,678.661621 629.155457,682.341614 
	C632.158264,691.304993 634.558899,700.475098 637.707336,709.383423 
	C641.353088,719.699097 648.108154,727.821533 657.002625,734.152222 
	C658.346619,735.108765 659.831665,736.181152 661.568359,735.108337 
	C663.267029,734.058838 663.080444,732.279846 662.893738,730.617126 
	C662.708374,728.967102 662.411987,727.329102 662.148499,725.688354 
	C660.542419,715.685059 658.772827,705.700439 658.760559,694.556335 
M384.695404,576.494385 
	C384.381256,574.684387 385.402679,572.559570 383.604187,571.001587 
	C380.621490,572.360718 382.394348,576.346313 379.475037,577.633789 
	C374.657318,576.131165 376.330292,570.017883 372.601807,567.279541 
	C370.341095,569.976074 369.502258,572.675171 369.647247,575.653137 
	C374.120178,578.833679 378.857239,580.828674 384.408905,581.975525 
	C384.517212,580.183411 384.604919,578.732239 384.695404,576.494385 
M392.596680,585.018799 
	C393.305267,585.320740 394.480286,586.884827 394.548004,584.848816 
	C394.646362,581.891663 394.567688,578.826843 392.581238,574.674194 
	C392.015106,579.005920 389.377441,581.684326 392.596680,585.018799 
M407.582916,583.444641 
	C407.279907,584.647888 406.408356,585.780762 407.176239,587.310120 
	C408.503174,586.820862 409.806274,586.340454 411.509705,585.712463 
	C410.395020,584.303772 411.261597,581.190552 407.582916,583.444641 
z"/>
<path fill="#000000" opacity="1.000000" stroke="none" 
	d="
M192.722931,375.123260 
	C181.647797,353.432587 196.587418,319.878906 222.675888,312.221863 
	C239.037842,307.419525 253.519333,309.448792 266.443085,320.678314 
	C272.522552,325.960754 272.779266,333.540497 273.849243,340.770721 
	C277.104248,362.765839 267.111481,383.951355 248.832077,393.691345 
	C228.188675,404.690948 203.084396,396.526215 192.722931,375.123260 
z"/>
<path fill="#000000" opacity="1.000000" stroke="none" 
	d="
M189.693604,288.835754 
	C195.756424,284.478607 197.914230,278.229156 199.754166,271.780334 
	C200.588943,268.854492 199.371765,264.885437 202.616287,263.206146 
	C206.702667,261.091125 211.457565,260.972961 215.799286,262.262146 
	C237.675339,268.757812 252.655701,283.265503 262.616791,303.388397 
	C263.258270,304.684204 263.502960,306.176392 264.021179,307.867554 
	C260.051697,309.111786 256.586395,307.595093 253.185226,306.846863 
	C222.150940,300.019409 196.111679,314.743073 186.331223,344.918640 
	C185.246582,348.265076 184.863373,351.838867 183.609406,355.289734 
	C181.101807,350.537720 181.101349,345.375122 180.892426,340.398071 
	C180.219635,324.370697 181.861694,308.556610 186.232910,293.065857 
	C186.756973,291.208710 187.274918,289.555786 189.693604,288.835754 
z"/>
<path fill="#000000" opacity="1.000000" stroke="none" 
	d="
M408.077454,481.930145 
	C408.270142,479.878235 408.262695,478.163300 408.782959,476.627075 
	C410.655975,471.096741 414.947144,469.418396 420.110779,472.032715 
	C429.820587,476.948792 432.316650,487.619720 425.741211,496.103363 
	C422.917999,499.745789 419.713715,500.161255 415.785767,497.644409 
	C410.161346,494.040527 408.405212,488.584015 408.077454,481.930145 
z"/>
<path fill="#000000" opacity="1.000000" stroke="none" 
	d="
M415.587555,634.888123 
	C414.714630,634.203064 413.930817,633.782288 414.473541,632.090149 
	C419.253296,633.773987 423.554779,636.026245 427.860809,640.263367 
	C422.516998,640.051331 419.444000,636.954285 415.587555,634.888123 
z"/>
<path fill="#000000" opacity="1.000000" stroke="none" 
	d="
M355.846069,294.913635 
	C365.256531,295.293335 373.108337,298.375183 380.056335,304.069580 
	C386.736542,309.544525 388.658234,316.513550 386.890106,324.620636 
	C382.025024,346.927460 352.014771,361.782593 331.246277,352.257080 
	C319.902649,347.054291 314.565613,335.928528 317.628632,323.869232 
	C322.756073,303.682129 334.217651,294.888885 355.846069,294.913635 
z"/>
</svg>